<?xml version="1.0" encoding="utf-8"?>
<!-- Generator: Adobe Illustrator 25.2.0, SVG Export Plug-In . SVG Version: 6.00 Build 0)  -->
<svg version="1.1" id="Capa_1" xmlns="http://www.w3.org/2000/svg" xmlns:xlink="http://www.w3.org/1999/xlink" x="0px" y="0px"
	 viewBox="0 0 647.4 647.4" style="enable-background:new 0 0 647.4 647.4;" xml:space="preserve">
<style type="text/css">
	.st0{fill:#FFFFFF;}
</style>
<g id="XMLID_1_">
	<path id="XMLID_13_" class="st0" d="M321.3,161l-204.6-53.5l-3.1,3.2c-20,20.5-34.6,46.7-42.2,75.8c-19.2,73.6,11.3,147,69.1,173.2
		L92.9,541.6c-36.6-8-65-9.5-66.7-3c-2,7.7,33.2,23.5,78.5,35.4c45.4,11.9,83.8,15.3,85.9,7.5c1.7-6.5-23.8-19.1-59.6-30.1l47.6-182
		c62.7,4.6,124.5-44.2,143.6-117.4c7.6-29.1,7.7-59.1,0.3-86.8L321.3,161z M216.6,318.6c0,0,67.9-29.2,64-57l18.8,4.9
		C299.4,266.5,291.8,316,216.6,318.6z M178.8,181c-35.9-37.5-61.4-37.7-74.7-33.4c5.1-8.3,10.9-16,17.3-23.1l187.4,49
		c3.2,13.7,4.4,28,3.6,42.5C311.1,216.3,233,237.7,178.8,181z"/>
	<path id="XMLID_9_" class="st0" d="M554.5,605.7l-42.3-183.3c57.7-25.1,89.8-97,72.8-170.6c-6.8-29.3-20.6-56-40-77l-3-3.2
		L335.9,219l-1.2,4.2c-8.2,27.5-9,57.5-2.2,86.8c17.1,74.2,78.2,125,141.5,121.4l42.2,183.1c-36.2,9.9-62.1,21.7-60.5,28.3
		c1.7,7.7,40.3,5.5,86-5.1c45.8-10.5,81.3-25.4,79.6-33.1C619.8,598,591.4,598.7,554.5,605.7z M522.4,359.6c0,0,46.6-57.3,30.3-80.2
		l19-4.4C571.7,275,587.8,322.3,522.4,359.6z M425.1,255.2c-49.2-16.6-71.9-4.9-81.6,5c0.6-9.7,2.2-19.2,4.6-28.4l188.7-43.5
		c9.2,10.7,16.9,22.8,22.9,36C558.7,225.1,499.4,280.3,425.1,255.2z"/>
	<circle id="XMLID_8_" class="st0" cx="444.5" cy="168.6" r="20.7"/>
	<circle id="XMLID_7_" class="st0" cx="492.6" cy="77.2" r="18"/>
	<circle id="XMLID_6_" class="st0" cx="455" cy="10.5" r="10.5"/>
	<circle id="XMLID_5_" class="st0" cx="411.1" cy="6.9" r="6.9"/>
	<circle id="XMLID_4_" class="st0" cx="283.5" cy="19.8" r="19.8"/>
	<path id="XMLID_3_" class="st0" d="M117.1,44.6c3.1,1.6,5.9,3,9,4.4c3.1,1.4,6.2,3.6,8.7,6.5c2.5,2.9,4.7,6.4,6.7,10.2
		c2,3.7,3.7,7.9,5.1,12.1c3,8.5,4.8,17.6,6,26.9l2.2,0.2c2.3-9.4,3-19.1,2.7-29.1c-0.6-9.9-2.6-20.2-7.9-30
		c-2.6-4.8-5.8-9.8-10.1-14.1c-4.4-4.2-10.1-7.2-16-8.2c-11.8-2.1-23.1,1.2-31.2,8.9l0.4,2.2C102.9,38.9,110.9,41.3,117.1,44.6z"/>
	<path id="XMLID_2_" class="st0" d="M169.3,36.6c1.2,1.1,2.2,2.4,2.9,4.1c0.7,1.7,1.2,3.5,1.4,5.4c0.3,1.9,0.5,4,0.5,6
		c0.1,4.1-0.5,8.4-1.3,12.6l0.9,0.4c2.4-3.8,4.1-7.9,5.4-12.3c1.2-4.4,1.8-9.2,0.9-14.2c-0.4-2.5-1.1-5.1-2.4-7.6
		c-1.3-2.5-3.4-4.6-5.8-5.9c-4.9-2.6-10.2-2.8-14.9-0.6l-0.1,1c3.9,3.3,7,5.5,9.2,7.9C167.1,34.5,168.1,35.5,169.3,36.6z"/>
</g>
</svg>
