<?xml version="1.0" encoding="utf-8"?>
<!-- Generator: Adobe Illustrator 25.2.0, SVG Export Plug-In . SVG Version: 6.00 Build 0)  -->
<svg version="1.1" id="Capa_1" xmlns="http://www.w3.org/2000/svg" xmlns:xlink="http://www.w3.org/1999/xlink" x="0px" y="0px"
	 viewBox="0 0 540.2 540.2" style="enable-background:new 0 0 540.2 540.2;" xml:space="preserve">
<style type="text/css">
	.st0{fill:#FFFFFF;}
</style>
<g id="XMLID_1_">
	<g id="XMLID_2_">
		<path id="XMLID_6_" class="st0" d="M169.5,194.1v310.1c0,8.1,2.9,15.1,8.9,21c5.8,5.8,12.7,8.7,20.6,8.8c7.9-0.1,14.8-3,20.6-8.8
			c5.9-5.9,8.9-12.9,8.9-21V194.1c8.9-3.1,42.1-32.7,42.1-42.2V27.2c0-4-1.5-7.5-4.4-10.5c-3-2.9-6.5-4.4-10.5-4.4
			c-4,0-7.5,1.5-10.5,4.4c-3,3-4.4,6.5-4.4,10.5v97c0,4-1.5,7.5-4.4,10.5c-3,3-6.5,4.4-10.5,4.4c-4,0-7.5-1.5-10.5-4.4
			c-2.9-2.9-4.4-6.5-4.4-10.5v-97c0-4-1.5-7.5-4.4-10.5c-2.9-2.9-6.4-4.4-10.5-4.4c-4,0-7.5,1.5-10.5,4.4c-3,3-4.4,6.5-4.4,10.5v97
			c0,4-1.5,7.5-4.4,10.5c-3,3-6.5,4.4-10.5,4.4c-4,0-7.5-1.5-10.5-4.4c-3-2.9-4.4-6.5-4.4-10.5v-97c0-4-1.5-7.5-4.4-10.5
			c-2.9-2.9-6.4-4.4-10.5-4.4c-4,0-7.5,1.5-10.5,4.4c-2.9,3-4.4,6.5-4.4,10.5v124.7C121.3,161.4,160.6,191,169.5,194.1z"/>
		<path id="XMLID_5_" class="st0" d="M199.3,534.1c-0.1,0-0.3,0-0.4,0c-0.1,0-0.2,0-0.4,0H199.3z"/>
		<path id="XMLID_4_" class="st0" d="M389.8,540.2c-0.1,0-0.2,0-0.4,0s-0.3,0-0.4,0H389.8z"/>
		<path id="XMLID_3_" class="st0" d="M326.1,268.6H360v241.8c0,8.1,2.9,15.1,8.9,21c5.8,5.8,12.7,8.7,20.6,8.8
			c7.9-0.1,14.8-3,20.6-8.8c5.9-5.9,8.9-12.9,8.9-21V14.9c0-4-1.5-7.5-4.4-10.5c-3-2.9-6.4-4.4-10.5-4.4h-10.7
			c-20.5,0-38.1,7.3-52.7,21.9c-14.6,14.6-21.9,32.2-21.9,52.7v186.5c0,2,0.7,3.8,2.2,5.2C322.4,267.8,324.1,268.6,326.1,268.6z"/>
	</g>
</g>
</svg>
