<?xml version="1.0" encoding="utf-8"?>
<!-- Generator: Adobe Illustrator 25.2.0, SVG Export Plug-In . SVG Version: 6.00 Build 0)  -->
<svg version="1.1" id="Capa_1" xmlns="http://www.w3.org/2000/svg" xmlns:xlink="http://www.w3.org/1999/xlink" x="0px" y="0px"
	 viewBox="0 0 31.4 31.4" style="enable-background:new 0 0 31.4 31.4;" xml:space="preserve">
<style type="text/css">
	.st0{fill:#FFFFFF;}
</style>
<g id="XMLID_1_">
	<g id="XMLID_2_">
		<path id="XMLID_5_" class="st0" d="M27.9,21.8c-0.3,0.4-0.8,0.6-1.3,0.6c-0.5,0-1-0.2-1.3-0.6c-1-1.2-2.5-1.9-4.2-1.9
			c-1.7,0-3.2,0.7-4.2,1.9c-0.3,0.4-0.8,0.6-1.3,0.6c-0.5,0-1-0.2-1.3-0.6c-1-1.2-2.5-1.9-4.2-1.9c-1.7,0-3.2,0.7-4.2,1.9
			c-0.3,0.4-0.8,0.6-1.3,0.6l0,0c-0.5,0-1-0.2-1.3-0.6c-0.8-0.9-1.9-1.6-3.2-1.8v3.4c0.3,0.1,0.5,0.3,0.7,0.6c1,1.1,2.3,1.7,3.7,1.7
			c1.4,0,2.8-0.6,3.7-1.7c0.5-0.5,1.1-0.8,1.8-0.8c0.7,0,1.3,0.3,1.8,0.8c0.9,1.1,2.3,1.7,3.7,1.7c1.4,0,2.8-0.6,3.7-1.7
			c0.5-0.5,1.1-0.8,1.8-0.8c0.9,0,1.5,0.5,1.8,0.8c1,1.1,2.3,1.7,3.8,1.7c1.4,0,2.8-0.6,3.8-1.7c0.2-0.2,0.5-0.5,1.1-0.7v-3.3
			C30,20.1,28.7,20.8,27.9,21.8z"/>
		<circle id="XMLID_4_" class="st0" cx="24.4" cy="14.5" r="4"/>
		<path id="XMLID_3_" class="st0" d="M15,21c0.2,0.3,0.7,0.3,0.9,0c1-1.2,2.4-1.9,3.9-2.2c0.1-0.6,0.1-1.3-0.1-1.9
			c-0.1-0.3-1.4-4.7-1.4-4.7c0,0-0.2-0.9,0.4-1.7C19.3,9.8,20.4,9.3,22,9c0.9-0.1,1.5-1,1.4-1.9c-0.1-0.9-1-1.5-1.9-1.4
			c-2.6,0.4-4.4,1.4-5.5,3c-1.4,2-0.9,4-0.9,4.3l0.3,1.4c-0.2,0-0.4,0.1-0.6,0.2l-6.6,2.3c-1.5,0.5-2.4,1.9-2.5,3.3
			c1.2-1,2.7-1.5,4.3-1.5C11.9,18.7,13.7,19.6,15,21z"/>
	</g>
</g>
</svg>
