<?xml version="1.0" encoding="utf-8"?>
<!-- Generator: Adobe Illustrator 25.2.0, SVG Export Plug-In . SVG Version: 6.00 Build 0)  -->
<svg version="1.1" id="Layer_1" xmlns="http://www.w3.org/2000/svg" xmlns:xlink="http://www.w3.org/1999/xlink" x="0px" y="0px"
	 viewBox="0 0 60 60" style="enable-background:new 0 0 60 60;" xml:space="preserve">
<style type="text/css">
	.st0{fill:#FFFFFF;}
</style>
<g id="XMLID_1_">
	<path id="XMLID_18_" class="st0" d="M0,45.4c0.2-0.6,0.3-1.3,0.6-1.9c1.1-2.8,3.2-4.4,6.1-5.1c1-0.2,2-0.5,3.1-0.7
		c0.3-0.1,0.4-0.2,0.5-0.6c0-0.7-0.1-1.1-0.7-1.6c-1.8-1.4-2.8-3.4-2.9-5.7c-0.1-1.7,0-3.3,0-5c0.1-3.4,2.8-6.6,6.2-7.2
		c2.7-0.5,5.1,0.2,7,2.1c0.1,0.1,0.1,0.1,0.2,0.2c0,0,0,0,0.1,0c1.8-4.6,5-7.3,10.1-7.3c3.9-0.1,8.1,2.4,9.8,7.3
		c0.5-0.4,1.1-0.9,1.7-1.3c4.6-3,11-0.2,11.7,5.2c0.3,2.5,0.4,5-0.1,7.4c-0.3,1.8-1.4,3.3-2.9,4.4c-0.4,0.3-0.7,1.3-0.5,1.8
		c0.1,0.1,0.3,0.2,0.5,0.2c1,0.3,2.1,0.5,3.1,0.8c3.5,0.9,5.7,3.1,6.4,6.7c0,0.1,0.1,0.2,0.1,0.3c0,3.1,0,6.2,0,9.2
		c-0.3,0.6-0.9,0.8-1.6,0.8c-2.8,0-5.5,0-8.3,0c-0.2,0-0.4,0-0.7,0c0,1,0,2,0,3c0,0.7-0.2,1.3-0.8,1.7c-4.7,0-9.4,0-14.1,0
		c-0.7-0.5-1-1-0.8-1.5c0.2-0.6,0.6-0.8,1.5-0.8c1.5,0,3,0,4.6,0c0.2,0,0.5,0,0.8,0c0-1.7,0-3.4,0-5c0-0.8,0.5-1.3,1.2-1.3
		c0.7,0,1.2,0.5,1.2,1.3c0,1.2,0,2.4,0,3.6c0,0.5,0,1,0,1.5c1.4,0,2.7,0,4,0c0-2,0.1-3.9,0-5.8c-0.3-4-2.8-6.8-6.7-7.8
		c-1.6-0.4-3.3-0.8-4.9-1.2c-0.5-0.1-0.7-0.1-0.9,0.4c-1.1,2.6-2.2,5.1-3.4,7.6c-0.2,0.5-0.5,0.9-1.2,0.9s-1-0.4-1.2-0.9
		c-0.4-0.8-0.7-1.6-1.1-2.4c-0.9-1.9-1.7-3.8-2.5-5.8c-0.2,0-0.3,0-0.5,0.1c-1.7,0.4-3.5,0.8-5.2,1.3c-3.5,0.9-5.7,3.1-6.5,6.7
		c-0.3,1.2-0.2,2.6-0.2,3.8c0,1,0,2,0,3c1.4,0,2.7,0,4.1,0c0-0.2,0-0.3,0-0.4c0-1.6,0-3.1,0-4.7c0-0.7,0.5-1.2,1.2-1.2
		s1.1,0.5,1.2,1.2c0,0.5,0,1.1,0,1.6c0,1.1,0,2.3,0,3.5c0.3,0,0.5,0,0.7,0c1.5,0,3,0,4.4,0c0.9,0,1.5,0.8,1.1,1.6
		c-0.1,0.3-0.4,0.5-0.7,0.7c-4.5,0-9.1,0-13.6,0c-0.6-0.3-0.9-0.9-0.8-1.6c0-1,0-2,0-3.1c-0.3,0-0.5,0-0.7,0c-2.8,0-5.5,0-8.2,0
		c-0.7,0-1.3-0.2-1.6-0.9C0,51.5,0,48.5,0,45.4z M22.1,26.2c0,1.3-0.1,2.5,0,3.6c0.4,3.7,3.5,6.7,7.1,7c3.8,0.3,7.3-2.1,8.4-5.6
		c0.5-1.6,0.3-3.3,0.3-5c0-0.4-0.1-0.5-0.4-0.7c-1.2-0.7-2.5-1.4-3.7-2.2c-0.5-0.3-0.8-0.2-1.1,0.1c-2,1.7-4.3,2.7-6.9,2.8
		C24.6,26.2,23.4,26.2,22.1,26.2z M38,23c-0.2-3.2-1.5-5.6-4.2-7.1c-2.9-1.5-5.7-1.4-8.4,0.5c-2.5,1.8-3.5,4.4-3.4,7.5
		c1.1,0,2.1,0,3.2,0c2.6,0,4.8-1,6.6-2.9c0.8-0.9,1.2-0.9,2.2-0.3C35.3,21.4,36.6,22.2,38,23z M57.6,53.1c0-2.5,0.1-5,0-7.4
		c-0.2-2.3-1.6-4-3.8-4.7c-1.4-0.5-2.8-0.7-4.2-1.1c-0.8,1.9-1.6,3.7-2.3,5.6c-0.1,0.2,0.1,0.4,0.2,0.6c0.9,1.3,1.6,2.8,1.9,4.4
		c0.1,0.9,0.2,1.8,0.3,2.6c1.2,0,2.3,0,3.5,0c0-0.4,0-0.8,0-1.2c0-1.3,0-2.6,0-3.9c0-0.7,0.5-1.2,1.2-1.2c0.6,0,1.1,0.5,1.1,1.2
		c0,0.2,0,0.5,0,0.7c0,1.5,0,3,0,4.5C56.1,53.1,56.8,53.1,57.6,53.1z M10.6,53.1c-0.1-2.7,0.6-5.1,2.2-7.2c0.1-0.1,0.1-0.3,0-0.4
		c-0.8-1.8-1.5-3.7-2.3-5.5c-1.3,0.3-2.5,0.6-3.7,0.9c-2.6,0.7-4.1,2.4-4.4,5.1c-0.2,1.9-0.1,3.7-0.1,5.6c0,0.5,0,1,0,1.6
		c0.8,0,1.6,0,2.3,0c0-1.7,0-3.3,0-5c0-0.8,0.5-1.3,1.2-1.3S7,47.2,7,48.1c0,1.3,0,2.7,0,4c0,0.3,0,0.7,0,1
		C8.2,53.1,9.4,53.1,10.6,53.1z M8.9,27.8c0.1,0.9,0.1,1.6,0.1,2.4c0.2,2.1,2,4.1,4.2,4.5c2.2,0.5,4.6-0.6,5.7-2.5
		c1.1-1.9,0.7-4,0.8-6.1C16.2,27.9,12.6,28,8.9,27.8z M40.4,26.1c0,1.4-0.1,2.7,0,4c0.3,3.2,3.6,5.4,6.7,4.5c3-0.9,4.4-3.6,3.9-6.8
		C47.4,28,43.8,27.9,40.4,26.1z M51.1,25.5c0.1-3-2-5.5-5-5.7c-2.8-0.2-5.1,2-5.4,3.8C43.9,25.6,47.4,25.6,51.1,25.5z M9,25.5
		c3.6,0.2,7.2,0.1,10.4-1.9c-0.7-2.6-3.4-4.3-6.2-3.7C10.6,20.4,8.6,23,9,25.5z M27.1,38.8c0,1.3-0.1,2.5,0.5,3.7
		c0.8,1.5,1.4,3.1,2.1,4.6c0.1,0.2,0.2,0.4,0.3,0.7c0.1-0.3,0.2-0.5,0.3-0.7c0.7-1.6,1.3-3.2,2.1-4.7c0.6-1.2,0.5-2.3,0.5-3.6
		C31,39.3,29.1,39.3,27.1,38.8z M24.7,39.5c0-0.4,0-0.7,0-1c0.1-0.6-0.2-0.8-0.6-1.2c-0.7-0.6-1.4-1.2-2.1-1.9
		c-0.5-0.5-0.8-1.1-1.2-1.6c-0.8,0.7-1.5,1.4-2.2,2.1c-0.1,0.1-0.2,0.3-0.2,0.4c0,0.4,0,0.8,0,1.2C20.5,38.1,22.7,38.3,24.7,39.5z
		 M41.6,37.5c0-0.3,0-0.7,0-1c0-0.2-0.1-0.5-0.2-0.6c-0.7-0.7-1.5-1.4-2.3-2.1c0,0,0,0,0,0c-0.9,1.6-2,2.8-3.5,3.8
		c-0.1,0.1-0.2,0.2-0.2,0.3c0,0.5,0,1,0,1.6C37.3,38.3,39.5,38.2,41.6,37.5z M14.2,42.6c0.1,0,0.1,0,0.2,0c0.5-1.9,1.9-3.4,1.6-5.5
		c-1.2,0-2.3,0-3.5,0c0,0.5-0.1,1.1,0.1,1.6C13.1,40,13.7,41.3,14.2,42.6z M44,37.1c0,0.7-0.1,1.5,0.3,2.2c0.5,1.1,0.9,2.2,1.4,3.3
		c0.1,0,0.1,0,0.2,0c0.5-1.9,1.9-3.4,1.6-5.5C46.3,37.1,45.1,37.1,44,37.1z M41.9,39.9c-1.5,0.4-2.9,0.7-4.3,1.1c0,0,0,0.1,0,0.1
		c1.8,0.5,3.6,0.9,5.4,1.4C42.6,41.6,42.3,40.8,41.9,39.9z M22.4,41C22.4,41,22.4,41,22.4,41c-1.4-0.4-2.9-0.8-4.3-1.1
		c-0.4,0.9-0.7,1.7-1.1,2.6C18.9,42,20.6,41.5,22.4,41z"/>
	<path id="XMLID_17_" class="st0" d="M29.6,60.1c-0.4-0.2-0.8-0.5-0.8-1.1c0-0.6,0.3-1.1,0.9-1.2c0.5-0.1,1.1,0.1,1.3,0.6
		s0.1,1-0.3,1.4c-0.1,0.1-0.2,0.2-0.4,0.3C30.1,60.1,29.9,60.1,29.6,60.1z"/>
	<path id="XMLID_16_" class="st0" d="M31.2,7.4c0,0.5,0,1,0,1.5c0,0.7-0.5,1.2-1.2,1.2s-1.1-0.5-1.2-1.2c0-1,0-2,0-3
		c0-0.7,0.5-1.2,1.1-1.2c0.7,0,1.2,0.5,1.2,1.2C31.2,6.4,31.2,6.9,31.2,7.4z"/>
	<path id="XMLID_15_" class="st0" d="M34.8,7c-0.3-0.2-0.7-0.4-0.8-0.7s-0.2-0.9,0-1.1c0.6-0.8,1.4-1.5,2.2-2.2
		c0.4-0.4,1-0.2,1.4,0.2c0.4,0.4,0.5,1,0.1,1.4C37,5.3,36.2,6,35.5,6.7C35.3,6.9,35.1,6.9,34.8,7z"/>
	<path id="XMLID_14_" class="st0" d="M25.1,7.1c-0.4-0.2-0.7-0.3-1-0.6c-0.5-0.5-1.1-1-1.6-1.6c-0.5-0.6-0.6-1.2-0.1-1.7
		c0.5-0.5,1.2-0.5,1.7,0c0.6,0.5,1.1,1.1,1.7,1.7c0.4,0.4,0.5,0.9,0.2,1.3C25.9,6.6,25.5,6.8,25.1,7.1z"/>
	<path id="XMLID_13_" class="st0" d="M10.2,4.9c0,1.1-0.4,1.6-1.3,1.6c-0.5,0-0.9-0.3-1-0.8C7.8,5,7.7,4.3,8.2,3.7
		C8.5,3.3,9,3.2,9.4,3.4C10,3.6,10.2,4,10.2,4.9z"/>
	<path id="XMLID_12_" class="st0" d="M48,8.9c-1,0-1.5-0.4-1.5-1.2c0-0.8,0.5-1.2,1.6-1.2c1,0,1.5,0.4,1.5,1.2
		C49.6,8.3,49.2,9,48,8.9z"/>
	<path id="XMLID_11_" class="st0" d="M10.2,10.6c0,1.1-0.6,1.8-1.5,1.5c-0.7-0.2-1-0.9-0.8-2C8,9.4,8.5,9,9.1,9
		C9.9,9,10.2,9.5,10.2,10.6z"/>
	<path id="XMLID_10_" class="st0" d="M6.2,9C5.8,8.9,5.4,8.8,5.1,8.6C4.7,8.4,4.6,7.9,4.7,7.5c0.1-0.6,0.6-0.9,1.2-0.9
		c1.1,0,1.6,0.2,1.8,0.8C7.9,8.2,7.3,9,6.2,9z"/>
	<path id="XMLID_9_" class="st0" d="M11.8,8.9c-0.3,0-0.6,0-0.8-0.1c-0.5-0.2-0.8-0.7-0.7-1.3c0.1-0.5,0.5-0.9,1-1
		c0.3,0,0.6,0,0.9,0c0.7,0,1.2,0.5,1.2,1.2c0,0.6-0.5,1.1-1.1,1.2C12.2,8.9,12,8.9,11.8,8.9C11.8,8.9,11.8,8.9,11.8,8.9z"/>
	<path id="XMLID_8_" class="st0" d="M53.7,8.9c-0.2,0-0.3,0-0.5,0c-0.6-0.1-1-0.6-1-1.2s0.5-1.1,1-1.1c0.3,0,0.6,0,0.9,0
		c0.7,0,1.2,0.5,1.2,1.1c0,0.6-0.5,1.1-1.2,1.2C54,8.9,53.9,8.9,53.7,8.9C53.7,8.9,53.7,8.9,53.7,8.9z"/>
	<path id="XMLID_7_" class="st0" d="M52.1,4.8c0,1.2-0.5,1.8-1.3,1.6C50.4,6.3,50,6,49.8,5.7c-0.3-0.7-0.3-1.4,0.2-2
		c0.3-0.4,0.8-0.5,1.2-0.3C52,3.7,52.1,4.2,52.1,4.8z"/>
	<path id="XMLID_6_" class="st0" d="M52.1,10.7c0,0.2,0,0.5-0.1,0.7c-0.2,0.5-0.6,0.7-1.1,0.7c-0.5,0-0.9-0.3-1-0.8
		c-0.1-0.4-0.1-0.9,0-1.3c0.1-0.7,0.6-1,1.2-1c0.6,0,1,0.4,1.1,1.1C52.1,10.3,52.1,10.4,52.1,10.7z"/>
	<path id="XMLID_5_" class="st0" d="M30,0.2c0.6,0,1.1,0.6,1.1,1.2c0,0.6-0.6,1.2-1.2,1.1c-0.6,0-1.1-0.6-1.1-1.2
		C28.9,0.7,29.4,0.2,30,0.2z"/>
	<path id="XMLID_4_" class="st0" d="M30,34.2c-0.9,0-1.6-0.3-2.2-0.8c-0.5-0.5-0.6-1.1-0.2-1.6c0.4-0.5,1-0.6,1.6-0.2
		c0.5,0.4,1,0.4,1.5,0c0.6-0.4,1.2-0.3,1.6,0.2c0.4,0.5,0.3,1.2-0.2,1.7C31.5,33.9,30.8,34.2,30,34.2z"/>
	<path id="XMLID_3_" class="st0" d="M33.9,29.6c-0.6,0-1.2-0.5-1.2-1.1c0-0.6,0.6-1.2,1.2-1.2c0.6,0,1.2,0.5,1.2,1.2
		C35.1,29.1,34.6,29.6,33.9,29.6z"/>
	<path id="XMLID_2_" class="st0" d="M26,29.6c-0.6,0-1.2-0.5-1.1-1.2c0-0.6,0.6-1.2,1.2-1.2c0.6,0,1.2,0.6,1.2,1.2
		C27.2,29.1,26.7,29.6,26,29.6z"/>
</g>
</svg>
